# xmcd
#
# Track frame offsets:
#	150
#	17916
#	35462
#	50697
#	70636
#	88288
#	103612
#	121323
#	140929
#	154396
#	170937
#	191370
#	205889
#	221145
#	235407
#
# Disc length: 3320 seconds
#
# Revision: 0
# Processed by: cddbd v1.5PL3 Copyright (c) Steve Scherf et al.
# Submitted via: dBpowerAMP V4.0
#
DISCID=e90cf60f
DTITLE=Different Artists - Country Line Dance cd 3
DYEAR=1900
DGENRE=Country
TTITLE0=Boot Scoot Barn
TTITLE1=The Test Of Time
TTITLE2=Have You Ever
TTITLE3=Neon Moon
TTITLE4=The Good Old Days
TTITLE5=Lazy Bayou
TTITLE6=A Love To Last Forever
TTITLE7=Just Old Times
TTITLE8=Edge Of Heaven
TTITLE9=Love Me Or Leave Me
TTITLE10=I Was Made For You
TTITLE11=Just Because I Can
TTITLE12=Dear Old Mother Of Mine
TTITLE13=Heartbreak Road
TTITLE14=Line Dance Lover
EXTD=
EXTT0=
EXTT1=
EXTT2=
EXTT3=
EXTT4=
EXTT5=
EXTT6=
EXTT7=
EXTT8=
EXTT9=
EXTT10=
EXTT11=
EXTT12=
EXTT13=
EXTT14=
PLAYORDER=
